<svg width="84" height="96" viewBox="0 0 84 96" fill="none" xmlns="http://www.w3.org/2000/svg">
<path d="M42.0523 27.5477L17.2086 70.5803C16.9979 70.9428 16.6958 71.2437 16.3326 71.4531C15.9694 71.6624 15.5576 71.7729 15.1383 71.7736H11.2296C5.08879 71.7736 0.11084 66.7954 0.11084 60.6548V35.0824C0.11084 31.0823 2.22543 27.5767 5.39451 25.6181C5.89992 25.3056 6.51229 25.8678 6.24161 26.3968C5.37746 28.0837 4.93605 30.0187 5.04885 32.0674C5.35481 37.6309 9.86308 42.1817 15.424 42.5348C21.8915 42.9459 27.2686 37.8231 27.2686 31.4394C27.2726 29.0927 26.5288 26.8058 25.1452 24.9104C25.0803 24.8216 25.0413 24.7165 25.0324 24.6069C25.0236 24.4972 25.0454 24.3872 25.0953 24.2892C25.1451 24.1911 25.2212 24.1088 25.315 24.0513C25.4088 23.9939 25.5167 23.9635 25.6267 23.9636H39.9811C41.8204 23.9636 42.9716 25.9537 42.0523 27.5477Z" fill="#009FE3"/>
<path d="M72.6536 23.9646H55.0365C54.617 23.9642 54.2049 24.0743 53.8415 24.2838C53.4781 24.4932 53.1762 24.7947 52.9663 25.1578L28.119 68.1862C27.2 69.78 28.351 71.7745 30.1892 71.7745H72.6536C78.7961 71.7745 83.7724 66.7949 83.7724 60.6558V35.0833C83.7708 28.9399 78.7961 23.9646 72.6536 23.9646ZM58.7806 67.17C52.6414 67.17 47.6618 62.1953 47.6618 56.0515C47.6618 49.9123 52.6414 44.9327 58.7806 44.9327C64.9198 44.9327 69.8991 49.9123 69.8991 56.0515C69.8993 62.1949 64.9198 67.17 58.7806 67.17Z" fill="#009FE3"/>
<path d="M15.4521 77.7481C18.6301 77.7481 20.6164 81.1883 19.0276 83.9405L13.4188 93.6563C12.2805 95.6296 9.75482 96.3044 7.78153 95.1658C5.80403 94.0275 5.12953 91.5018 6.26787 89.5243L11.8771 79.812C12.2394 79.1845 12.7606 78.6634 13.3881 78.3011C14.0156 77.9388 14.7275 77.7481 15.4521 77.7481Z" fill="#009FE3"/>
<path d="M64.4372 4.18986C64.4363 4.91412 64.2443 5.62531 63.8807 6.25167L58.2964 15.9261C57.9342 16.5537 57.4131 17.0749 56.7856 17.4372C56.1581 17.7995 55.4463 17.9903 54.7217 17.9903C51.5442 17.9903 49.5583 14.5503 51.1471 11.7986L56.734 2.12268C57.8723 0.145189 60.3979 -0.529313 62.3712 0.609025C62.9996 0.972034 63.5213 1.49406 63.884 2.12263C64.2467 2.7512 64.4375 3.46417 64.4372 4.18986Z" fill="#009FE3"/>
<path d="M63.0453 58.9076C65.3253 58.9076 67.1736 57.0593 67.1736 54.7793C67.1736 52.4993 65.3253 50.651 63.0453 50.651C60.7653 50.651 58.917 52.4993 58.917 54.7793C58.917 57.0593 60.7653 58.9076 63.0453 58.9076Z" fill="#009FE3"/>
<path d="M56.4256 63.8907C57.8017 63.8907 58.9172 62.7752 58.9172 61.3992C58.9172 60.0231 57.8017 58.9076 56.4256 58.9076C55.0496 58.9076 53.9341 60.0231 53.9341 61.3992C53.9341 62.7752 55.0496 63.8907 56.4256 63.8907Z" fill="#009FE3"/>
</svg>
